gui_paths_subject3_walking1_full_v3
version=1
nRows=12
nColumns=56
inDegrees=no
endheader
time	pelvis_tilt	pelvis_list	pelvis_rotation	pelvis_tx	pelvis_ty	pelvis_tz	hip_flexion_r	hip_adduction_r	hip_rotation_r	knee_angle_r	ankle_angle_r	subtalar_angle_r	mtp_angle_r	hip_flexion_l	hip_adduction_l	hip_rotation_l	knee_angle_l	ankle_angle_l	subtalar_angle_l	mtp_angle_l	lumbar_extension	lumbar_bending	lumbar_rotation	arm_flex_r	arm_add_r	arm_rot_r	elbow_flex_r	pro_sup_r	wrist_flex_r	wrist_dev_r	arm_flex_l	arm_add_l	arm_rot_l	elbow_flex_l	pro_sup_l	wrist_flex_l	wrist_dev_l	knee_angle_r_beta	knee_angle_l_beta	/forceset/M0_r/activation	/forceset/M1_r/activation	/forceset/M2_r/activation	/forceset/M3_r/activation	/forceset/M4_r/activation	/forceset/M5_r/activation	/forceset/M6_r/activation	/forceset/M7_r/activation	/forceset/M0_l/activation	/forceset/M1_l/activation	/forceset/M2_l/activation	/forceset/M3_l/activation	/forceset/M4_l/activation	/forceset/M5_l/activation	/forceset/M6_l/activation	/forceset/M7_l/activation
0.03000000	0.04315046	-0.00622164	-0.02752359	-0.08777188	0.89312260	-0.28165137	0.38686688	0.03270810	-0.19388119	0.13407153	0.07365959	0.01861229	-0.00040485	-0.39752550	0.05020229	-0.11123904	0.14287338	0.30817769	0.02034670	-0.00088755	-0.16878258	0.04959822	-0.27978864	-0.16023107	-0.25045295	0.03206789	0.29408870	1.35474797	-0.00009351	0.00046255	0.03480918	-0.29781892	-0.30888887	1.06557114	1.48138163	-0.00013359	0.00030875	0.13407153	0.14287338	0.53816972	0.18726216	0.00004267	0.07147302	0.22559793	0.08484082	0.00003618	0.01580452	0.09009751	0.05920107	0.00000000	0.00000000	0.00000000	0.00000000	0.15257958	0.35868025
0.04000000	0.04531312	-0.02196287	-0.02446997	-0.07126158	0.89699613	-0.28074835	0.38166850	0.04894320	-0.20932312	0.15306147	0.04837396	0.01861229	-0.00040485	-0.40593166	0.02908539	-0.12526874	0.16513073	0.30253003	0.02034670	-0.00088755	-0.16748845	0.06808768	-0.27838697	-0.16072278	-0.25339574	0.02977879	0.29137650	1.35416937	-0.00009351	0.00046255	0.02764183	-0.29227891	-0.30720439	1.07180759	1.48138395	-0.00013359	0.00030875	0.15306147	0.16513073	0.62790446	0.20392792	0.00000160	0.09145509	0.27843755	0.01442031	0.00001052	0.00106904	0.13534478	0.27684079	0.00000000	0.00000000	0.00000000	0.00000000	0.28205371	0.62958947
0.05000000	0.04835077	-0.04004577	-0.02127844	-0.05476636	0.90041808	-0.27974127	0.37365889	0.06779387	-0.22220168	0.16970129	0.01863378	0.01861229	-0.00040485	-0.41249637	0.00421692	-0.14276430	0.19331780	0.29386570	0.02034670	-0.00088755	-0.16692341	0.08895612	-0.27616712	-0.16052259	-0.25607945	0.02673837	0.28963171	1.35326078	-0.00009351	0.00046255	0.01992633	-0.28573371	-0.30509455	1.07566595	1.48138626	-0.00013359	0.00030875	0.16970129	0.19331780	0.66006173	0.17109152	0.00000165	0.10338715	0.30641568	0.00000522	0.00001650	0.03219092	0.17668463	0.54106349	0.00000000	0.00000000	0.00000000	0.00000000	0.39748552	0.86986037
0.06000000	0.05199387	-0.05967925	-0.01829479	-0.03841420	0.90343978	-0.27861337	0.36406884	0.08841633	-0.23228144	0.18554620	-0.01066639	0.01861229	-0.00040485	-0.41595648	-0.02367349	-0.16302889	0.22822129	0.28109508	0.02034670	-0.00088755	-0.16699168	0.11126024	-0.27282478	-0.15950821	-0.25830507	0.02269950	0.28918762	1.35194224	-0.00009351	0.00046255	0.01187543	-0.27831075	-0.30262179	1.07664764	1.48138857	-0.00013359	0.00030875	0.18554620	0.22822129	0.63784365	0.09166952	0.00000078	0.10720202	0.31653986	0.00000088	0.00000181	0.07761643	0.22528526	0.78646080	0.04302937	0.00000000	0.00000000	0.00000000	0.46299593	1.00000000
0.07000000	0.05673277	-0.08043711	-0.01560872	-0.02227420	0.90616302	-0.27738147	0.35295090	0.11023615	-0.23997300	0.20226500	-0.03469250	0.01861229	-0.00040485	-0.41671374	-0.05411760	-0.18401007	0.26980653	0.26307611	0.02034670	-0.00088755	-0.16845109	0.13453141	-0.26818067	-0.15754915	-0.26003086	0.01768257	0.29011684	1.35026544	-0.00009351	0.00046255	0.00378865	-0.27004505	-0.29989436	1.07481274	1.48139088	-0.00013359	0.00030875	0.20226500	0.26980653	0.57757118	0.00000046	0.00000038	0.11303594	0.29525762	0.07758227	0.00000090	0.19989675	0.28920257	0.98745645	0.13532301	0.00000000	0.00000000	0.00000000	0.46726890	1.00000000
0.08000000	0.06250936	-0.10169599	-0.01320662	-0.00640217	0.90863772	-0.27605308	0.34088038	0.13257207	-0.24523748	0.22123997	-0.04989893	0.01861229	-0.00040485	-0.41442546	-0.08659806	-0.20387806	0.31848822	0.23890956	0.02034670	-0.00088755	-0.17133897	0.15807984	-0.26200154	-0.15484588	-0.26115859	0.01147024	0.29246622	1.34833051	-0.00009351	0.00046255	-0.00405616	-0.26108754	-0.29669574	1.07020631	1.48139320	-0.00013359	0.00030875	0.22123997	0.31848822	0.53771896	0.00000008	0.00000009	0.14763876	0.22082347	0.34461190	0.00000015	0.52728636	0.37267967	1.00000000	0.33462765	0.00000000	0.00000000	0.00000000	0.36056276	0.74280609
0.09000000	0.06882874	-0.12340070	-0.01084679	0.00915834	0.91087925	-0.27462741	0.32855575	0.15550244	-0.24810821	0.24257150	-0.05519663	0.01861229	-0.00040485	-0.40784289	-0.12155483	-0.22199340	0.37530606	0.20790329	0.02034670	-0.00088755	-0.17503569	0.18183887	-0.25355079	-0.15235679	-0.26152645	0.00251272	0.29682988	1.34608238	-0.00009351	0.00046255	-0.01093154	-0.25166749	-0.29176321	1.06224653	1.48139551	-0.00013359	0.00030875	0.24257150	0.37530606	0.48438572	0.00000012	0.00000016	0.18430130	0.13895880	0.59380705	0.00000021	0.84710821	0.43551300	1.00000000	0.46022820	0.00000000	0.00000000	0.00000000	0.25537208	0.49329721
0.10000000	0.07431582	-0.14422033	-0.00873860	0.02436325	0.91282633	-0.27309198	0.31719471	0.17797793	-0.24765407	0.26515645	-0.05172315	0.01861229	-0.00040485	-0.39507099	-0.15734265	-0.23550287	0.44006146	0.16977338	0.02034670	-0.00088755	-0.17801816	0.20428636	-0.24284477	-0.15053238	-0.26088430	-0.00960242	0.30340445	1.34372793	-0.00009351	0.00046255	-0.01677509	-0.24220887	-0.28471044	1.05078575	1.48139782	-0.00013359	0.00030875	0.26515645	0.44006146	0.43545632	0.00000000	0.00000000	0.21968555	0.08890978	0.64668300	0.00000000	1.00000000	0.42887130	1.00000000	0.43254171	0.00000000	0.00000000	0.00000000	0.20673221	0.39618723
0.11000000	0.07672645	-0.16153069	-0.00759636	0.03915676	0.91434330	-0.27142418	0.30883016	0.19757853	-0.24267794	0.28748257	-0.04184667	0.01861229	-0.00040485	-0.37356971	-0.19009288	-0.23987692	0.51127866	0.12508619	0.02034670	-0.00088755	-0.17794386	0.22247193	-0.23104283	-0.14893946	-0.25902432	-0.02344937	0.31179495	1.34194425	-0.00009351	0.00046255	-0.02244949	-0.23323033	-0.27655484	1.03639879	1.48140013	-0.00013359	0.00030875	0.28748257	0.51127866	0.39431666	0.00000000	0.00000000	0.25324946	0.06874849	0.53116787	0.00000000	1.00000000	0.35161070	1.00000000	0.26297573	0.00000000	0.00000000	0.00000000	0.22654946	0.49879796
0.12000000	0.07488987	-0.17464252	-0.00737470	0.05351743	0.91537757	-0.26965112	0.30415168	0.21357415	-0.23440692	0.30774674	-0.02852045	0.01861229	-0.00040485	-0.34185481	-0.21845990	-0.23405813	0.58783551	0.07518753	0.02034670	-0.00088755	-0.17349216	0.23570598	-0.21905356	-0.14747900	-0.25606064	-0.03805599	0.32199114	1.34131947	-0.00009351	0.00046255	-0.02820446	-0.22496544	-0.26759886	1.01934496	1.48140245	-0.00013359	0.00030875	0.30774674	0.58783551	0.35374334	0.00000000	0.00000000	0.28752247	0.04387252	0.43418069	0.00000000	1.00000000	0.23166571	1.00000000	0.01358499	0.00000000	0.00000000	0.00000000	0.29859099	0.76915657
0.13000000	0.06976850	-0.18447303	-0.00711401	0.06746324	0.91603366	-0.26786830	0.30133077	0.22661961	-0.22580322	0.32394148	-0.01417778	0.01861229	-0.00040485	-0.30119093	-0.24306586	-0.21951382	0.66795148	0.02208986	0.02034670	-0.00088755	-0.16556075	0.24513011	-0.20775687	-0.14591152	-0.25241964	-0.05157550	0.33381336	1.34204007	-0.00009351	0.00046255	-0.03385272	-0.21742653	-0.25802579	0.99998172	1.48140476	-0.00013359	0.00030875	0.32394148	0.66795148	0.31860878	0.00000000	0.00000000	0.32199569	0.01614978	0.35704927	0.00000000	1.00000000	0.20840192	0.78837717	0.00000000	0.00000000	0.00000000	0.00000000	0.24836726	0.70485965
0.14000000	0.06293413	-0.19166841	-0.00589895	0.08102612	0.91645307	-0.26617827	0.29811862	0.23699056	-0.21933871	0.33471850	0.00001304	0.01861229	-0.00040485	-0.25418797	-0.26390200	-0.19743217	0.74865346	-0.03113497	0.02034670	-0.00088755	-0.15576809	0.25156573	-0.19812426	-0.14369693	-0.24853817	-0.06187751	0.34696258	1.34383892	-0.00009351	0.00046255	-0.03940170	-0.21064217	-0.24839974	0.97891233	1.48140706	-0.00013359	0.00030875	0.33471850	0.74865346	0.32541203	0.00000000	0.03281842	0.35581167	0.00000000	0.31208055	0.00000000	1.00000000	0.17684779	0.56141702	0.00000000	0.00000000	0.00000000	0.00000000	0.20774756	0.64844862
